<svg xmlns="http://www.w3.org/2000/svg" width="204" height="60" viewBox="0 0 204 60">
    <path fill="#000" fill-rule="nonzero" d="M1.135 8.518c.558.347 1.206.52 1.863.498A1.683 1.683 0 0 0 4.84 7.263C4.84 5.61.976 5.401.976 3.19c0-1.354 1.185-2.2 2.67-2.2a5.04 5.04 0 0 1 1.652.278l-.129.757a3.426 3.426 0 0 0-1.534-.319c-.866 0-1.823.359-1.823 1.445 0 1.693 3.865 1.703 3.865 4.163 0 1.703-1.464 2.38-2.769 2.38a4.81 4.81 0 0 1-1.912-.358l.139-.817zm11.126-4.243a3.496 3.496 0 0 0-1.315-.309 2.29 2.29 0 0 0-2.32 2.57 2.33 2.33 0 0 0 2.23 2.57c.475-.01.944-.104 1.385-.279l.07.717c-.511.166-1.047.24-1.584.22a2.918 2.918 0 0 1-2.988-3.228 2.988 2.988 0 0 1 3.078-3.257 4.612 4.612 0 0 1 1.484.24l-.04.756zM14.55.54h.758v3.984A2.092 2.092 0 0 1 17.23 3.34c1.654 0 2.102 1.095 2.102 2.62v3.685h-.757V5.968c0-1.065-.21-1.992-1.464-1.992-1.255 0-1.823 1.275-1.823 2.351v3.297h-.757l.02-9.084zm13.985 9.054h-.916l-1.673-5.319-1.674 5.329h-.916l-1.992-6.156h.836l1.614 5.33 1.713-5.33h.917l1.633 5.33 1.703-5.33h.757l-2.002 6.146zm8.178-.19a5.04 5.04 0 0 1-1.783.34c-1.992 0-2.799-1.375-2.799-3.228 0-1.852.996-3.227 2.6-3.227 1.743 0 2.45 1.404 2.45 3.058v.388h-4.213a2.082 2.082 0 0 0 1.992 2.351 3.984 3.984 0 0 0 1.723-.458l.03.777zm-.379-3.316c0-1.076-.438-2.142-1.573-2.142a1.992 1.992 0 0 0-1.813 2.142h3.386zm3.955-4.293h-.757V.799h.757v.996zm-.757 1.643h.757v6.156h-.757V3.438zm3.048 5.519l3.705-4.871H42.69v-.648h4.442v.648l-3.705 4.85h3.705v.648h-4.591l.04-.627zm10.996.448a5.04 5.04 0 0 1-1.783.338c-1.992 0-2.799-1.374-2.799-3.227 0-1.852.996-3.227 2.6-3.227 1.743 0 2.45 1.404 2.45 3.058v.388h-4.213a2.082 2.082 0 0 0 1.992 2.351 3.984 3.984 0 0 0 1.723-.458l.03.777zm-.379-3.317c0-1.076-.438-2.142-1.573-2.142a1.992 1.992 0 0 0-1.813 2.142h3.386zm3.228-1.275c.028-.458.028-.917 0-1.375h.757v1.186a1.833 1.833 0 0 1 1.583-1.325c.178.002.356.026.528.07v.797a1.992 1.992 0 0 0-.558-.07c-1.205 0-1.533 1.354-1.533 2.46v3.048h-.757l-.02-4.791zm5.727-3.018h-.757V.799h.757v.996zm-.757 1.643h.757v6.156h-.757V3.438zm3.147 5.27a3.626 3.626 0 0 0 1.604.388c.727 0 1.365-.398 1.365-1.096 0-1.464-2.989-1.235-2.989-2.988 0-1.215.997-1.673 1.993-1.673a4.84 4.84 0 0 1 1.524.279l-.07.667a3.586 3.586 0 0 0-1.365-.289c-.787 0-1.325.24-1.325.996 0 1.146 2.989.996 2.989 2.988 0 1.305-1.216 1.753-2.152 1.753a4.642 4.642 0 0 1-1.723-.288l.15-.737zm10.12-4.433a3.496 3.496 0 0 0-1.315-.309 2.29 2.29 0 0 0-2.32 2.57 2.33 2.33 0 0 0 2.23 2.57c.475-.01.944-.104 1.385-.279l.07.717c-.51.166-1.047.24-1.584.22a2.918 2.918 0 0 1-2.988-3.228A2.988 2.988 0 0 1 73.19 3.31a4.612 4.612 0 0 1 1.484.239l-.01.727zM76.954.54h.757v3.984a2.092 2.092 0 0 1 1.923-1.185c1.653 0 2.101 1.095 2.101 2.62v3.685h-.757V5.968c0-1.065-.209-1.992-1.464-1.992s-1.823 1.275-1.823 2.351v3.297h-.757l.02-9.084zm11.783 8.865a5.04 5.04 0 0 1-1.783.338c-1.992 0-2.798-1.374-2.798-3.227 0-1.852.996-3.227 2.6-3.227 1.742 0 2.45 1.404 2.45 3.058v.388h-4.214a2.082 2.082 0 0 0 1.992 2.351 3.984 3.984 0 0 0 1.724-.458l.03.777zm-.378-3.317c0-1.076-.438-2.142-1.574-2.142a1.992 1.992 0 0 0-1.813 2.142h3.387zm7.251-4.92h4.134v.727h-3.267v2.988h3.127v.727h-3.127v3.247h3.446v.727H95.65l-.04-8.417zm7.65.627h-.757V.799h.757v.996zm-.757 1.643h.757v6.156h-.757V3.438zm8.506 6.156h-.757v-.996a1.992 1.992 0 0 1-1.922 1.125c-1.694 0-2.54-1.404-2.54-3.227 0-1.822.727-3.227 2.54-3.227a2.072 2.072 0 0 1 1.922 1.185V.47h.757v9.124zm-2.58-.508c1.355 0 1.823-1.454 1.823-2.57 0-1.115-.468-2.57-1.823-2.57-1.354 0-1.823 1.375-1.823 2.57 0 1.195.369 2.57 1.823 2.57zm10.23 0c0 1.713-.777 3.118-2.889 3.118a6.385 6.385 0 0 1-1.862-.33l.06-.756a4.163 4.163 0 0 0 1.812.438c1.992 0 2.122-1.424 2.122-3.167a1.912 1.912 0 0 1-1.873 1.205c-1.992 0-2.6-1.713-2.6-3.078 0-1.872.728-3.227 2.54-3.227a1.992 1.992 0 0 1 1.923.847v-.698h.757l.01 5.648zm-2.63-.15c1.375 0 1.873-1.304 1.873-2.43 0-1.484-.439-2.57-1.823-2.57-1.385 0-1.823 1.375-1.823 2.57 0 1.196.478 2.44 1.773 2.44v-.01zm9.532.469a5.04 5.04 0 0 1-1.783.338c-1.992 0-2.799-1.374-2.799-3.227 0-1.852.996-3.227 2.6-3.227 1.743 0 2.45 1.404 2.45 3.058v.388h-4.213a2.082 2.082 0 0 0 1.992 2.351 3.984 3.984 0 0 0 1.723-.458l.03.777zm-.378-3.317c0-1.076-.438-2.142-1.574-2.142a1.992 1.992 0 0 0-1.813 2.142h3.387zm3.237-1.205V3.428h.737v1.096a1.992 1.992 0 0 1 1.992-1.245c1.524 0 2.102.996 2.102 2.37v3.985h-.757V5.889c0-1.156-.409-1.913-1.464-1.913-1.385 0-1.823 1.215-1.823 2.241v3.407h-.757l-.03-4.741zm10.05-1.604c1.992 0 2.879 1.544 2.879 3.227 0 1.684-.877 3.227-2.879 3.227s-2.869-1.543-2.869-3.227c0-1.683.877-3.227 2.869-3.227zm0 5.797c1.325 0 1.992-1.145 1.992-2.57 0-1.424-.707-2.57-1.992-2.57-1.285 0-1.992 1.146-1.992 2.57 0 1.425.667 2.58 1.992 2.58v-.01zm4.82-.368a3.626 3.626 0 0 0 1.605.388c.727 0 1.364-.398 1.364-1.096 0-1.464-2.988-1.235-2.988-2.988 0-1.215.996-1.673 1.992-1.673a4.84 4.84 0 0 1 1.524.279l-.07.667a3.586 3.586 0 0 0-1.364-.289c-.787 0-1.325.24-1.325.996 0 1.146 2.988.996 2.988 2.988 0 1.305-1.225 1.753-2.151 1.753a4.652 4.652 0 0 1-1.723-.288l.149-.737zm5.599 0a3.626 3.626 0 0 0 1.603.388c.727 0 1.365-.398 1.365-1.096 0-1.464-2.988-1.235-2.988-2.988 0-1.215.996-1.673 1.992-1.673a4.84 4.84 0 0 1 1.524.279l-.07.667a3.586 3.586 0 0 0-1.364-.289c-.787 0-1.325.24-1.325.996 0 1.146 2.988.996 2.988 2.988 0 1.305-1.225 1.753-2.152 1.753a4.652 4.652 0 0 1-1.723-.288l.15-.737zm10.24.697a5.04 5.04 0 0 1-1.784.338c-1.992 0-2.799-1.374-2.799-3.227 0-1.852.996-3.227 2.6-3.227 1.743 0 2.45 1.404 2.45 3.058v.388h-4.213a2.082 2.082 0 0 0 1.992 2.351 3.984 3.984 0 0 0 1.723-.458l.03.777zm-.38-3.317c0-1.076-.438-2.142-1.573-2.142a1.992 1.992 0 0 0-1.813 2.142h3.387zm3.228-1.205V3.428h.737v1.096a1.992 1.992 0 0 1 1.992-1.245c1.524 0 2.102.996 2.102 2.37v3.985h-.757V5.889c0-1.156-.409-1.913-1.465-1.913-1.384 0-1.822 1.215-1.822 2.241v3.407h-.757l-.03-4.741zm7.211 3.825a3.626 3.626 0 0 0 1.604.388c.727 0 1.364-.398 1.364-1.096 0-1.464-2.988-1.235-2.988-2.988 0-1.215.996-1.673 1.992-1.673a4.83 4.83 0 0 1 1.524.279l-.07.667a3.586 3.586 0 0 0-1.364-.289c-.787 0-1.325.24-1.325.996 0 1.146 2.988.996 2.988 2.988 0 1.305-1.225 1.753-2.151 1.753a4.652 4.652 0 0 1-1.723-.288l.15-.737zm10.1-4.433a3.496 3.496 0 0 0-1.315-.309 2.29 2.29 0 0 0-2.32 2.57 2.33 2.33 0 0 0 2.23 2.57c.475-.01.944-.104 1.385-.279l.07.717c-.511.166-1.047.24-1.584.22a2.918 2.918 0 0 1-2.988-3.228 2.988 2.988 0 0 1 3.048-3.227 4.612 4.612 0 0 1 1.484.239l-.01.727zM181.58.54h.757v3.984a2.092 2.092 0 0 1 1.922-1.185c1.654 0 2.102 1.095 2.102 2.62v3.685h-.757V5.968c0-1.065-.21-1.992-1.464-1.992-1.255 0-1.803 1.295-1.803 2.291v3.297h-.757V.54zm11.196 8.068a2.171 2.171 0 0 1-1.993 1.135c-1.753 0-1.992-1.185-1.992-1.743 0-2.062 2.202-2.161 3.795-2.161h.15V5.52c0-1.046-.379-1.584-1.405-1.584a3.277 3.277 0 0 0-1.813.508v-.737a4.85 4.85 0 0 1 1.813-.418c1.524 0 2.162.687 2.162 2.29v2.68c-.013.433.007.866.06 1.295h-.748l-.03-.946zm-.07-2.112h-.22c-1.314 0-2.888.13-2.888 1.484 0 .807.578 1.116 1.275 1.116 1.783 0 1.823-1.554 1.823-2.221l.01-.379zm4.024-2.41h-1.245v-.648h1.245V2.99c0-1.295 0-2.6 1.633-2.6.242-.01.483.032.708.12v.667a1.345 1.345 0 0 0-.608-.13c-.996 0-.926 1.126-.926 1.864v.527h1.384v.648h-1.384v5.508h-.757l-.05-5.508zm7.102 0h-1.405V8.07c0 .558.21.996.827.996.24-.001.477-.052.697-.15v.628c-.297.109-.61.166-.926.17-1.355 0-1.405-.927-1.405-2.052V4.066h-1.155v-.648h1.205V1.934l.757-.269v1.753h1.405v.668zM7.04 18.768a4.373 4.373 0 0 0-1.882-.359 3.307 3.307 0 0 0-3.416 3.636c0 2.121 1.195 3.635 3.416 3.635a4.163 4.163 0 0 0 1.883-.358v.727c-.61.259-1.27.381-1.933.358a3.984 3.984 0 0 1-4.253-4.362 4.064 4.064 0 0 1 4.253-4.363A5.448 5.448 0 0 1 7.042 18v.767zm5.23 1.175c1.992 0 2.878 1.544 2.878 3.227 0 1.683-.886 3.227-2.878 3.227s-2.869-1.544-2.869-3.227c0-1.683.877-3.227 2.869-3.227zm0 5.797c1.325 0 1.992-1.146 1.992-2.57s-.707-2.57-1.992-2.57c-1.285 0-1.992 1.146-1.992 2.57s.667 2.57 1.992 2.57zm5.259-4.193v-1.455h.737v1.116a1.992 1.992 0 0 1 1.992-1.245c1.524 0 2.102.996 2.102 2.37v3.985h-.757v-3.815c0-1.156-.409-1.913-1.464-1.913-1.385 0-1.823 1.216-1.823 2.241v3.407h-.757l-.03-4.691zm8.168-.807h-1.246v-.648h1.246v-.448c0-1.295 0-2.6 1.633-2.6.245-.01.49.03.717.12v.667a1.345 1.345 0 0 0-.607-.13c-.996 0-.927 1.126-.927 1.863v.528H27.9v.648h-1.385v5.508h-.757l-.06-5.508zm8.576 5.319a5.04 5.04 0 0 1-1.783.338c-1.993 0-2.8-1.374-2.8-3.227 0-1.853.997-3.227 2.6-3.227 1.743 0 2.45 1.404 2.45 3.058v.388h-4.213a2.082 2.082 0 0 0 1.992 2.35 3.984 3.984 0 0 0 1.724-.457l.03.777zm-.379-3.317c0-1.076-.438-2.142-1.574-2.142a1.992 1.992 0 0 0-1.813 2.142h3.387zm-1.265-4.98h.996l-1.524 1.743h-.558l1.086-1.743zm9.373 8.486h-.757v-.996a1.992 1.992 0 0 1-1.923 1.125c-1.693 0-2.54-1.404-2.54-3.227s.728-3.227 2.54-3.227a2.072 2.072 0 0 1 1.923 1.185v-3.984h.757v9.124zm-2.58-.508c1.355 0 1.823-1.454 1.823-2.57 0-1.115-.468-2.57-1.823-2.57S37.6 21.975 37.6 23.17c0 1.195.369 2.57 1.813 2.57h.01zm9.482.319a5.04 5.04 0 0 1-1.782.338c-1.993 0-2.8-1.374-2.8-3.227 0-1.853.997-3.227 2.6-3.227 1.743 0 2.45 1.404 2.45 3.058v.388H45.16a2.082 2.082 0 0 0 1.992 2.35 3.984 3.984 0 0 0 1.724-.457l.03.777zm-.378-3.317c0-1.076-.438-2.142-1.574-2.142a1.992 1.992 0 0 0-1.813 2.142h3.387zm-1.265-4.98h.996l-1.584 1.693h-.557l1.145-1.693zm4.492 3.705c.028-.458.028-.917 0-1.375h.757v1.186a1.823 1.823 0 0 1 1.584-1.325c.178.002.355.026.528.07v.796a1.992 1.992 0 0 0-.558-.07c-1.205 0-1.534 1.355-1.534 2.461v3.048h-.757l-.02-4.791zm8.506 3.795a2.171 2.171 0 0 1-1.992 1.135c-1.753 0-1.992-1.185-1.992-1.743 0-2.062 2.201-2.161 3.795-2.161h.15v-.289c0-1.046-.379-1.584-1.405-1.584a3.267 3.267 0 0 0-1.813.508v-.737a4.85 4.85 0 0 1 1.813-.418c1.524 0 2.162.687 2.162 2.29v2.72c-.013.432.007.865.06 1.295h-.748l-.03-1.016zm-.07-2.112h-.218c-1.315 0-2.889.13-2.889 1.484 0 .807.578 1.116 1.275 1.116 1.783 0 1.823-1.554 1.823-2.221l.01-.379zm6.166-2.41h-1.404v3.984c0 .558.209.996.817.996.24-.002.477-.053.697-.15v.628c-.297.109-.61.166-.927.17-1.354 0-1.404-.927-1.404-2.052V20.72H62.93v-.648h1.205v-1.484l.757-.269v1.753h1.404l.06.668zm3.068-2.291h-.757v-.996h.757v.996zm-.757 1.643h.757v6.156h-.757v-6.156zm6.016-.15c1.992 0 2.879 1.545 2.879 3.228 0 1.683-.877 3.227-2.879 3.227s-2.868-1.544-2.868-3.227c0-1.683.876-3.227 2.868-3.227zm0 5.798c1.325 0 1.992-1.146 1.992-2.57s-.707-2.57-1.992-2.57c-1.285 0-1.992 1.146-1.992 2.57s.667 2.57 1.992 2.57zm5.26-4.193v-1.455h.736v1.116a1.992 1.992 0 0 1 1.992-1.245c1.524 0 2.102.996 2.102 2.37v3.985h-.757v-3.815c0-1.156-.408-1.913-1.464-1.913-1.385 0-1.823 1.216-1.823 2.241v3.407h-.757l-.03-4.691zm11.354 3.814a3.626 3.626 0 0 0 1.604.389c.727 0 1.364-.399 1.364-1.096 0-1.464-2.988-1.235-2.988-2.988 0-1.215.996-1.673 1.992-1.673a4.85 4.85 0 0 1 1.524.279l-.07.667a3.586 3.586 0 0 0-1.364-.289c-.787 0-1.325.24-1.325.996 0 1.146 2.988.996 2.988 2.988 0 1.305-1.225 1.753-2.151 1.753a4.652 4.652 0 0 1-1.723-.289l.15-.737zm10.917-.557v1.444h-.737v-1.056a1.992 1.992 0 0 1-1.992 1.245c-1.524 0-2.102-.996-2.102-2.37v-3.985h.757v3.746c0 1.155.408 1.912 1.464 1.912 1.385 0 1.823-1.225 1.823-2.251v-3.407h.757l.03 4.722zm3.606-6.355h-.757v-.996h.757v.996zm-.757 1.643h.757v6.156h-.757v-6.156zm3.157 5.27a3.626 3.626 0 0 0 1.604.388c.727 0 1.364-.399 1.364-1.096 0-1.464-2.988-1.235-2.988-2.988 0-1.215.996-1.673 1.992-1.673a4.85 4.85 0 0 1 1.524.279l-.07.667a3.586 3.586 0 0 0-1.364-.289c-.787 0-1.325.24-1.325.996 0 1.146 2.988.996 2.988 2.988 0 1.305-1.215 1.753-2.151 1.753a4.642 4.642 0 0 1-1.723-.289l.15-.737zm5.638 0a3.626 3.626 0 0 0 1.603.388c.727 0 1.365-.399 1.365-1.096 0-1.464-2.988-1.235-2.988-2.988 0-1.215.996-1.673 1.992-1.673a4.85 4.85 0 0 1 1.564.219l-.07.667a3.586 3.586 0 0 0-1.365-.289c-.787 0-1.324.24-1.324.996 0 1.146 2.988.996 2.988 2.989 0 1.304-1.225 1.753-2.152 1.753a4.652 4.652 0 0 1-1.723-.29l.11-.677zm10.24.697a5.04 5.04 0 0 1-1.784.338c-1.992 0-2.799-1.374-2.799-3.227 0-1.853.996-3.227 2.6-3.227 1.743 0 2.45 1.404 2.45 3.058v.388h-4.183a2.082 2.082 0 0 0 1.992 2.35 3.984 3.984 0 0 0 1.723-.457v.777zm-.38-3.317c0-1.076-.438-2.142-1.573-2.142a1.992 1.992 0 0 0-1.813 2.142h3.387zM7.043 35.422a4.373 4.373 0 0 0-1.883-.36 3.307 3.307 0 0 0-3.416 3.636c0 2.122 1.195 3.636 3.416 3.636a4.163 4.163 0 0 0 1.883-.359v.728c-.61.259-1.27.381-1.933.358a3.984 3.984 0 0 1-4.253-4.363 4.064 4.064 0 0 1 4.253-4.362 5.458 5.458 0 0 1 1.933.309v.777zm5.229 1.185c1.992 0 2.878 1.544 2.878 3.227 0 1.683-.886 3.227-2.878 3.227s-2.869-1.544-2.869-3.227c0-1.683.877-3.227 2.869-3.227zm0 5.797c1.325 0 1.992-1.146 1.992-2.57s-.707-2.57-1.992-2.57c-1.285 0-1.992 1.146-1.992 2.57s.667 2.56 1.992 2.56v.01zM17.53 38.2v-1.454h.737v1.096a1.992 1.992 0 0 1 1.992-1.245c1.524 0 2.102.996 2.102 2.37v3.985h-.757v-3.815c0-1.156-.409-1.913-1.464-1.913-1.385 0-1.823 1.216-1.823 2.241v3.407h-.757l-.03-4.672zm8.168-.796h-1.246v-.648h1.246v-.448c0-1.295 0-2.6 1.633-2.6.245-.01.49.03.717.12v.667a1.345 1.345 0 0 0-.607-.13c-.996 0-.927 1.126-.927 1.863v.528H27.9v.648h-1.385v5.508h-.757l-.06-5.508zm8.576 5.309a5.04 5.04 0 0 1-1.783.338c-1.993 0-2.8-1.374-2.8-3.227 0-1.853.997-3.227 2.6-3.227 1.743 0 2.45 1.404 2.45 3.058v.388h-4.213a2.082 2.082 0 0 0 1.992 2.35 3.984 3.984 0 0 0 1.724-.457l.03.777zm-.379-3.317c0-1.076-.438-2.142-1.574-2.142a1.992 1.992 0 0 0-1.813 2.142h3.387zm8.108 3.506h-.757v-.996a1.992 1.992 0 0 1-1.923 1.125c-1.693 0-2.54-1.404-2.54-3.227s.728-3.227 2.54-3.227a2.072 2.072 0 0 1 1.923 1.185v-3.984h.757v9.124zm-2.58-.508c1.355 0 1.823-1.454 1.823-2.57 0-1.116-.468-2.57-1.823-2.57S37.6 38.63 37.6 39.824c0 1.195.369 2.57 1.813 2.57h.01zm9.482.319a5.04 5.04 0 0 1-1.782.338c-1.993 0-2.8-1.374-2.8-3.227 0-1.853.997-3.227 2.6-3.227 1.743 0 2.45 1.404 2.45 3.058v.388H45.16a2.082 2.082 0 0 0 1.992 2.35 3.984 3.984 0 0 0 1.724-.457l.03.777zm-.378-3.317c0-1.076-.438-2.142-1.574-2.142a1.992 1.992 0 0 0-1.813 2.142h3.387zm3.227-1.255c.028-.458.028-.917 0-1.375h.757v1.185a1.833 1.833 0 0 1 1.584-1.324c.178.002.355.025.528.07v.796a1.992 1.992 0 0 0-.558-.07c-1.205 0-1.534 1.355-1.534 2.46v3.049h-.757l-.02-4.791zm8.506 3.775a2.171 2.171 0 0 1-1.992 1.135c-1.753 0-1.992-1.185-1.992-1.743 0-2.062 2.201-2.161 3.795-2.161h.15v-.319c0-1.046-.379-1.584-1.405-1.584a3.267 3.267 0 0 0-1.813.508v-.737a4.85 4.85 0 0 1 1.813-.418c1.524 0 2.162.687 2.162 2.29v2.72c-.013.432.007.865.06 1.295h-.748l-.03-.986zm-.07-2.112h-.218c-1.315 0-2.889.13-2.889 1.484 0 .807.578 1.116 1.275 1.116 1.783 0 1.823-1.554 1.823-2.221l.01-.379zm2.939 2.46l3.705-4.87h-3.566v-.648h4.443v.648l-3.705 4.85h3.705v.648h-4.592l.01-.628zm7.63-7.111h-.757v-.996h.757v.996zm-.757 1.643h.757v6.156h-.757v-6.156zm6.026-.19c1.992 0 2.878 1.545 2.878 3.228 0 1.683-.876 3.227-2.878 3.227-2.002 0-2.869-1.544-2.869-3.227 0-1.683.877-3.227 2.869-3.227zm0 5.798c1.325 0 1.992-1.146 1.992-2.57s-.707-2.57-1.992-2.57c-1.285 0-1.992 1.146-1.992 2.57s.657 2.56 1.992 2.56v.01zm5.249-4.204v-1.454h.737v1.096a1.992 1.992 0 0 1 1.992-1.245c1.524 0 2.102.996 2.102 2.37v3.985h-.757v-3.815c0-1.156-.409-1.913-1.464-1.913-1.385 0-1.823 1.216-1.823 2.241v3.407h-.757l-.03-4.672zm11.783 4.513a5.04 5.04 0 0 1-1.783.338c-1.992 0-2.799-1.374-2.799-3.227 0-1.853.996-3.227 2.6-3.227 1.743 0 2.45 1.404 2.45 3.058v.388h-4.223a2.082 2.082 0 0 0 1.992 2.35 3.984 3.984 0 0 0 1.723-.457l.04.777zm-.378-3.317c0-1.076-.439-2.142-1.574-2.142a1.992 1.992 0 0 0-1.813 2.142h3.387zm7.26 2.43c.559.347 1.207.52 1.864.498a1.683 1.683 0 0 0 1.892-1.723c0-1.653-3.865-1.863-3.865-4.074 0-1.355 1.186-2.201 2.67-2.201a5.04 5.04 0 0 1 1.653.279l-.13.757a3.426 3.426 0 0 0-1.533-.319c-.867 0-1.823.359-1.823 1.444 0 1.694 3.865 1.704 3.865 4.164 0 1.703-1.464 2.38-2.77 2.38a4.81 4.81 0 0 1-1.912-.358l.09-.847zm9.264 1.076h-.896l-2.092-6.156h.837l1.703 5.33 1.783-5.33h.797l-2.132 6.156zm4.92-7.75h-.717v-.995h.757l-.04.996zm-.717 1.594h.757v6.156h-.757v-6.156zm2.989 5.518l3.705-4.87h-3.566v-.648h4.442v.648l-3.705 4.85h3.705v.648h-4.581v-.628zm6.334 0l3.706-4.87h-3.566v-.648h4.482v.648l-3.705 4.85h3.705v.648h-4.592l-.03-.628zm10.997.449a5.04 5.04 0 0 1-1.783.338c-1.992 0-2.799-1.374-2.799-3.227 0-1.853.996-3.227 2.6-3.227 1.743 0 2.45 1.404 2.45 3.058v.388h-4.213a2.082 2.082 0 0 0 1.992 2.35 3.984 3.984 0 0 0 1.723-.457l.03.777zm-.379-3.317c0-1.076-.438-2.142-1.573-2.142a1.992 1.992 0 0 0-1.813 2.142h3.386zm-9.87 19.174a2.171 2.171 0 0 1-1.993 1.135c-1.753 0-1.992-1.185-1.992-1.743 0-2.062 2.202-2.161 3.795-2.161h.08v-.32c0-1.045-.379-1.583-1.404-1.583a3.267 3.267 0 0 0-1.813.508v-.737a4.85 4.85 0 0 1 1.813-.418c1.523 0 2.161.687 2.161 2.29v2.72c-.012.432.008.865.06 1.295h-.747l.04-.986zm-.07-2.112h-.22c-1.314 0-2.888.13-2.888 1.484 0 .807.578 1.116 1.275 1.116 1.783 0 1.823-1.554 1.823-2.221l.01-.379zm-8.437-1.683c.028-.458.028-.917 0-1.375h.757v1.185a1.833 1.833 0 0 1 1.584-1.324c.178.002.355.025.528.07v.796a1.992 1.992 0 0 0-.558-.07c-1.205 0-1.534 1.355-1.534 2.46v3.049h-.757l-.02-4.791zm-6.862 4.143l3.705-4.84h-3.566v-.648h4.442v.647l-3.705 4.851h3.705v.648h-4.591l.01-.658zm-2.301-7.161h-.757v-.996h.757v.996zm-.757 1.643h.757v6.156h-.757V53.4zm-4.164 6.156h-.896L97.9 53.4h.837l1.703 5.329 1.783-5.329h.797l-2.132 6.156zm-8.247-.887a3.626 3.626 0 0 0 1.604.389c.727 0 1.364-.399 1.364-1.096 0-1.464-2.988-1.235-2.988-2.988 0-1.215.996-1.673 1.992-1.673a4.83 4.83 0 0 1 1.524.278l-.07.668a3.586 3.586 0 0 0-1.364-.29c-.787 0-1.325.24-1.325.997 0 1.145 2.988.996 2.988 2.988 0 1.305-1.215 1.753-2.151 1.753a4.642 4.642 0 0 1-1.724-.289l.15-.737zm-11.365-3.815V53.4h.737v1.096a1.992 1.992 0 0 1 1.992-1.245c1.524 0 2.102.996 2.102 2.37v3.985h-.757V55.86c0-1.155-.409-1.912-1.464-1.912-1.385 0-1.823 1.215-1.823 2.241v3.407h-.757l-.03-4.742zm-2.849 3.208v1.444h-.737V58.41a1.992 1.992 0 0 1-1.992 1.245c-1.524 0-2.102-.996-2.102-2.37V53.3h.757v3.745c0 1.155.409 1.912 1.465 1.912 1.384 0 1.822-1.225 1.822-2.251v-3.406h.757l.03 4.76zm-7.67-6.305h-.756v-.996h.757v.996zm-.756 1.643h.757v6.156h-.757V53.4zm-6.873 5.518l3.705-4.87h-3.566V53.4h4.443v.677l-3.705 4.851h3.705v.648h-4.592l.01-.658zm-2.869-.348a2.171 2.171 0 0 1-1.992 1.135c-1.753 0-1.992-1.185-1.992-1.743 0-2.062 2.201-2.161 3.795-2.161h.15v-.32c0-1.045-.379-1.583-1.405-1.583a3.267 3.267 0 0 0-1.813.508v-.737a4.85 4.85 0 0 1 1.813-.418c1.524 0 2.162.687 2.162 2.29v2.72c-.013.432.007.865.06 1.295h-.748l-.03-.986zm-.07-2.112h-.218c-1.315 0-2.889.13-2.889 1.484 0 .807.578 1.116 1.275 1.116 1.783 0 1.823-1.554 1.823-2.221l.01-.379zm-8.436-1.683c.028-.458.028-.917 0-1.375h.757v1.185a1.833 1.833 0 0 1 1.584-1.324c.178.002.355.025.528.07v.796a1.992 1.992 0 0 0-.558-.07c-1.205 0-1.534 1.355-1.534 2.46v3.049h-.757l-.02-4.791zm-2.849 4.591a5.04 5.04 0 0 1-1.782.34c-1.993 0-2.8-1.375-2.8-3.228 0-1.853.997-3.227 2.6-3.227 1.743 0 2.45 1.404 2.45 3.058v.388H45.16a2.082 2.082 0 0 0 1.992 2.35 3.984 3.984 0 0 0 1.724-.457l.03.776zm-.378-3.316c0-1.076-.438-2.142-1.574-2.142a1.992 1.992 0 0 0-1.813 2.142h3.387zm-6.524 3.506h-.757v-.996a1.992 1.992 0 0 1-1.923 1.125c-1.693 0-2.54-1.404-2.54-3.227s.728-3.227 2.54-3.227a2.072 2.072 0 0 1 1.923 1.185v-3.984h.757v9.124zm-2.58-.508c1.355 0 1.823-1.454 1.823-2.57 0-1.116-.468-2.57-1.823-2.57s-1.823 1.375-1.823 2.57c0 1.195.369 2.58 1.813 2.58l.01-.01zm-5.15.318a5.04 5.04 0 0 1-1.782.34c-1.993 0-2.8-1.375-2.8-3.228 0-1.853.997-3.227 2.6-3.227 1.743 0 2.45 1.404 2.45 3.058v.388h-4.213a2.082 2.082 0 0 0 1.992 2.35 3.984 3.984 0 0 0 1.724-.457l.03.776zm-.378-3.316c0-1.076-.438-2.142-1.574-2.142a1.992 1.992 0 0 0-1.813 2.142h3.387zm-8.197-1.973h-1.246v-.647h1.246v-.448c0-1.295 0-2.6 1.633-2.6.245-.01.49.03.717.12v.667a1.345 1.345 0 0 0-.607-.13c-.996 0-.927 1.126-.927 1.863v.528H27.9v.647h-1.385v5.509h-.757l-.06-5.509zm-8.168.777V53.4h.737v1.096a1.992 1.992 0 0 1 1.992-1.245c1.524 0 2.102.996 2.102 2.37v3.985h-.757V55.86c0-1.155-.409-1.912-1.464-1.912-1.385 0-1.823 1.215-1.823 2.241v3.407h-.757l-.03-4.742zm-5.26-1.603c1.993 0 2.88 1.544 2.88 3.227 0 1.683-.887 3.227-2.88 3.227-1.991 0-2.868-1.544-2.868-3.227 0-1.683.877-3.227 2.869-3.227zm0 5.797c1.326 0 1.993-1.146 1.993-2.57s-.707-2.57-1.992-2.57c-1.285 0-1.992 1.146-1.992 2.57s.667 2.58 1.992 2.58v-.01zm-5.228-6.963a4.383 4.383 0 0 0-1.883-.358 3.307 3.307 0 0 0-3.416 3.635c0 2.122 1.195 3.636 3.416 3.636a4.163 4.163 0 0 0 1.883-.359v.727c-.61.26-1.27.382-1.933.36a3.984 3.984 0 0 1-4.253-4.364A4.064 4.064 0 0 1 5.11 51a5.448 5.448 0 0 1 1.933.308v.777zm129.536-13.944c.028-.458.028-.917 0-1.375h.737v1.185a1.833 1.833 0 0 1 1.583-1.324c.178.002.356.025.528.07v.796a1.992 1.992 0 0 0-.558-.07c-1.205 0-1.533 1.355-1.533 2.46v3.049h-.757V38.14zm8.496 3.775a2.171 2.171 0 0 1-1.992 1.135c-1.753 0-1.992-1.185-1.992-1.743 0-2.062 2.2-2.161 3.795-2.161h.149v-.319c0-1.046-.379-1.584-1.404-1.584a3.267 3.267 0 0 0-1.813.508v-.737a4.85 4.85 0 0 1 1.813-.418c1.524 0 2.161.687 2.161 2.29v2.72c-.012.432.008.865.06 1.295h-.747l-.03-.986zm-.07-2.112h-.219c-1.315 0-2.889.13-2.889 1.484 0 .807.578 1.116 1.285 1.116 1.783 0 1.823-1.554 1.823-2.221v-.379z"/>
</svg>
